<svg xmlns="http://www.w3.org/2000/svg" version="1.1" xmlns:xlink="http://www.w3.org/1999/xlink" width="1200" height="2010"><rect width="1200" height="2010" fill="#f8f9fa"></rect><text font-size="22" font-weight="bold" font-family="Arial" fill="#1a1a1a" x="397.7783203125" y="33.53466796875"><tspan dy="0" x="397.7783203125">Türk Silahlı Kuvvetleri (TSK) – Hierarchie</tspan></text><text font-size="12" fill="#666666" x="900" y="1992.826171875"><tspan dy="0" x="900">Generiert: 11.11.2025, 14:36:50</tspan></text><polyline points="600,150 600,190 280,230 280,270" fill="none" stroke-width="2" stroke="#666666"></polyline><polyline points="600,150 600,190 600,230 600,270" fill="none" stroke-width="2" stroke="#666666"></polyline><polyline points="600,150 600,190 920,230 920,270" fill="none" stroke-width="2" stroke="#666666"></polyline><polyline points="280,360 280,400 600,440 600,480" fill="none" stroke-width="2" stroke="#666666"></polyline><polyline points="600,570 600,610 600,650 600,690" fill="none" stroke-width="2" stroke="#666666"></polyline><polyline points="600,780 600,820 600,860 600,900" fill="none" stroke-width="2" stroke="#666666"></polyline><polyline points="600,990 600,1030 600,1070 600,1110" fill="none" stroke-width="2" stroke="#666666"></polyline><polyline points="600,1200 600,1240 600,1280 600,1320" fill="none" stroke-width="2" stroke="#666666"></polyline><polyline points="600,1410 600,1450 600,1490 600,1530" fill="none" stroke-width="2" stroke="#666666"></polyline><polyline points="600,1620 600,1660 600,1700 600,1740" fill="none" stroke-width="2" stroke="#666666"></polyline><g><rect width="240" height="90" rx="12" ry="12" fill="#0d47a1" stroke="#222222" x="480" y="60"></rect><text font-size="15" font-weight="bold" fill="#ffffff" x="494" y="88.03271484375"><tspan dy="0" x="494">Genelkurmay Başkanlığı</tspan></text><text font-size="12" fill="#e3f2fd" x="494" y="106.826171875"><tspan dy="0" x="494">Generalstab</tspan></text><text font-size="11" fill="#ffffff" x="494" y="125.75732421875"><tspan dy="0" x="494">Kom: Yaşar Güler</tspan></text><text font-size="10" font-style="italic" fill="#ffcc80" x="494" y="142.6884765625"><tspan dy="0" x="494">Generalstabschef</tspan></text></g><g><rect width="240" height="90" rx="12" ry="12" fill="#1b5e20" stroke="#222222" x="160" y="270"></rect><text font-size="15" font-weight="bold" fill="#ffffff" x="174" y="298.03271484375"><tspan dy="0" x="174">Kara Kuvvetleri Komutanlığı</tspan></text><text font-size="12" fill="#e3f2fd" x="174" y="316.826171875"><tspan dy="0" x="174">Teilstreitkraft-Kommando</tspan></text><text font-size="11" fill="#ffffff" x="174" y="335.75732421875"><tspan dy="0" x="174">Kom: Musa Avsever</tspan></text><text font-size="10" font-style="italic" fill="#ffcc80" x="174" y="352.6884765625"><tspan dy="0" x="174">General</tspan></text></g><g><rect width="240" height="90" rx="12" ry="12" fill="#0d47a1" stroke="#222222" x="480" y="270"></rect><text font-size="15" font-weight="bold" fill="#ffffff" x="494" y="298.03271484375"><tspan dy="0" x="494">Deniz Kuvvetleri Komutanlığı</tspan></text><text font-size="12" fill="#e3f2fd" x="494" y="316.826171875"><tspan dy="0" x="494">Teilstreitkraft-Kommando</tspan></text><text font-size="11" fill="#ffffff" x="494" y="335.75732421875"><tspan dy="0" x="494">Kom: -</tspan></text></g><g><rect width="240" height="90" rx="12" ry="12" fill="#1565c0" stroke="#222222" x="800" y="270"></rect><text font-size="15" font-weight="bold" fill="#ffffff" x="814" y="298.03271484375"><tspan dy="0" x="814">Hava Kuvvetleri Komutanlığı</tspan></text><text font-size="12" fill="#e3f2fd" x="814" y="316.826171875"><tspan dy="0" x="814">Teilstreitkraft-Kommando</tspan></text><text font-size="11" fill="#ffffff" x="814" y="335.75732421875"><tspan dy="0" x="814">Kom: -</tspan></text></g><g><rect width="240" height="90" rx="12" ry="12" fill="#1b5e20" stroke="#222222" x="480" y="480"></rect><text font-size="15" font-weight="bold" fill="#ffffff" x="494" y="508.03271484375"><tspan dy="0" x="494">1. Ordu</tspan></text><text font-size="12" fill="#e3f2fd" x="494" y="526.826171875"><tspan dy="0" x="494">Armee</tspan></text><text font-size="11" fill="#ffffff" x="494" y="545.75732421875"><tspan dy="0" x="494">Kom: Ali Sivri</tspan></text><text font-size="10" font-style="italic" fill="#ffcc80" x="494" y="562.6884765625"><tspan dy="0" x="494">Generalleutnant</tspan></text></g><g><rect width="240" height="90" rx="12" ry="12" fill="#1b5e20" stroke="#222222" x="480" y="690"></rect><text font-size="15" font-weight="bold" fill="#ffffff" x="494" y="718.03271484375"><tspan dy="0" x="494">1. Kolordu</tspan></text><text font-size="12" fill="#e3f2fd" x="494" y="736.826171875"><tspan dy="0" x="494">Korps</tspan></text><text font-size="11" fill="#ffffff" x="494" y="755.75732421875"><tspan dy="0" x="494">Kom: Kemal Yeni</tspan></text><text font-size="10" font-style="italic" fill="#ffcc80" x="494" y="772.6884765625"><tspan dy="0" x="494">Generalmajor</tspan></text></g><g><rect width="240" height="90" rx="12" ry="12" fill="#1b5e20" stroke="#222222" x="480" y="900"></rect><text font-size="15" font-weight="bold" fill="#ffffff" x="494" y="928.03271484375"><tspan dy="0" x="494">1. Zırhlı Tümen</tspan></text><text font-size="12" fill="#e3f2fd" x="494" y="946.826171875"><tspan dy="0" x="494">Division</tspan></text><text font-size="11" fill="#ffffff" x="494" y="965.75732421875"><tspan dy="0" x="494">Kom: Veli Çelik</tspan></text><text font-size="10" font-style="italic" fill="#ffcc80" x="494" y="982.6884765625"><tspan dy="0" x="494">Brigadegeneral</tspan></text></g><g><rect width="240" height="90" rx="12" ry="12" fill="#1b5e20" stroke="#222222" x="480" y="1110"></rect><text font-size="15" font-weight="bold" fill="#ffffff" x="494" y="1138.03271484375"><tspan dy="0" x="494">1. Mekanize Piyade Tugayı</tspan></text><text font-size="12" fill="#e3f2fd" x="494" y="1156.826171875"><tspan dy="0" x="494">Brigade</tspan></text><text font-size="11" fill="#ffffff" x="494" y="1175.75732421875"><tspan dy="0" x="494">Kom: Hasan Demir</tspan></text><text font-size="10" font-style="italic" fill="#ffcc80" x="494" y="1192.6884765625"><tspan dy="0" x="494">Oberstleutnant</tspan></text></g><g><rect width="240" height="90" rx="12" ry="12" fill="#1b5e20" stroke="#222222" x="480" y="1320"></rect><text font-size="15" font-weight="bold" fill="#ffffff" x="494" y="1348.03271484375"><tspan dy="0" x="494">23. Piyade Alayı</tspan></text><text font-size="12" fill="#e3f2fd" x="494" y="1366.826171875"><tspan dy="0" x="494">Regiment</tspan></text><text font-size="11" fill="#ffffff" x="494" y="1385.75732421875"><tspan dy="0" x="494">Kom: Ahmet Yılmaz</tspan></text><text font-size="10" font-style="italic" fill="#ffcc80" x="494" y="1402.6884765625"><tspan dy="0" x="494">Major</tspan></text></g><g><rect width="240" height="90" rx="12" ry="12" fill="#1b5e20" stroke="#222222" x="480" y="1530"></rect><text font-size="15" font-weight="bold" fill="#ffffff" x="494" y="1558.03271484375"><tspan dy="0" x="494">1. Tabur</tspan></text><text font-size="12" fill="#e3f2fd" x="494" y="1576.826171875"><tspan dy="0" x="494">Bataillon</tspan></text><text font-size="11" fill="#ffffff" x="494" y="1595.75732421875"><tspan dy="0" x="494">Kom: Mehmet Kaya</tspan></text><text font-size="10" font-style="italic" fill="#ffcc80" x="494" y="1612.6884765625"><tspan dy="0" x="494">Stabshauptmann</tspan></text></g><g><rect width="240" height="90" rx="12" ry="12" fill="#1b5e20" stroke="#222222" x="480" y="1740"></rect><text font-size="15" font-weight="bold" fill="#ffffff" x="494" y="1768.03271484375"><tspan dy="0" x="494">A Bölüğü</tspan></text><text font-size="12" fill="#e3f2fd" x="494" y="1786.826171875"><tspan dy="0" x="494">Kompanie</tspan></text><text font-size="11" fill="#ffffff" x="494" y="1805.75732421875"><tspan dy="0" x="494">Kom: Can Öztürk</tspan></text><text font-size="10" font-style="italic" fill="#ffcc80" x="494" y="1822.6884765625"><tspan dy="0" x="494">Hauptmann</tspan></text></g></svg>